{"title":"Mongolian Death Worm 2010 DvDRip XviD Ac3 Feel-Free","uid":6346825,"size":927612500,"categoryP":"video","categoryS":"movies","magnet":"?xt=urn:btih:8f1d7cc2f9a2b226448107229166b79139c44e0b&amp;dn=Mongolian+Death+Worm+2010+DvDRip+XviD+Ac3+Feel-Free&amp;tr=udp%3A%2F%2Ftracker.openbittorrent.com%3A80&amp;tr=udp%3A%2F%2Fopen.demonii.com%3A1337&amp;tr=udp%3A%2F%2Ftracker.coppersurfer.tk%3A6969&amp;tr=udp%3A%2F%2Fexodus.desync.com%3A6969","seeders":0,"leechers":1,"uploader":"qwersd","files":8,"time":1303862427,"description":"Genre:Adventure | Sci-Fi \nLanguage:English\nIMDb:http://www.imdb.com/title/tt1504443/\nSource:DVD Thanks!\n\n\nFormat : AVI\nFormat/Info : Audio Video Interleave\nFile size : 883 MiB\nDuration : 1h 29mn\nOverall bit rate : 1 377 Kbps\n\n\nVideo\nID : 0\nFormat : MPEG-4 Visual\nFormat profile : Advanced Simple@L5\nFormat settings, BVOP : Yes\nFormat settings, QPel : No\nFormat settings, GMC : No warppoints\nFormat settings, Matrix : Default (H.263)\nMuxing mode : Packed bitstream\nCodec ID : XVID\nCodec ID/Hint : XviD\nDuration : 1h 29mn\nBit rate : 919 Kbps\nWidth : 652 pixels\nHeight : 352 pixels\nDisplay aspect ratio : 1.852\nFrame rate : 23.976 fps\nColor space : YUV\nChroma subsampling : 4:2:0\nBit depth : 8 bits\nScan type : Progressive\nBits/(Pixel*Frame) : 0.167\nStream size : 590 MiB (67%)\nWriting library : XviD 1.2.1 (UTC 2008-12-04)\n\nAudio\nID : 1\nFormat : AC-3\nFormat/Info : Audio Coding 3\nMode extension : CM (complete main)\nCodec ID : 2000\nDuration : 1h 29mn\nBit rate mode : Constant\nBit rate : 448 Kbps\nChannel(s) : 6 channels\nChannel positions : Front: L C R, Side: L R, LFE\nSampling rate : 48.0 KHz\nBit depth : 16 bits\nStream size : 287 MiB (33%)\nAlignment : Split accross interleaves\nInterleave, duration : 42 ms (1.00 video frame)\nInterleave, preload duration : 500 ms\n\n\nPlot:\nWhen an American oil company sets up an experimental drilling plant out in the vast deserts of Mongolia...\n\nScreens:\n &lt;a href=&quot;\nhttp://leetleech.org/images/61260284612077460230.png&quot; rel=&quot;nofollow&quot; target=&quot;_NEW&quot;&gt;\nhttp://leetleech.org/images/61260284612077460230.png&lt;/a&gt; &lt;a href=&quot;\nhttp://leetleech.org/images/13926350490174020051.png&quot; rel=&quot;nofollow&quot; target=&quot;_NEW&quot;&gt;\nhttp://leetleech.org/images/13926350490174020051.png&lt;/a&gt; &lt;a href=&quot;\nhttp://leetleech.org/images/87526678070356582625.png&quot; rel=&quot;nofollow&quot; target=&quot;_NEW&quot;&gt;\nhttp://leetleech.org/images/87526678070356582625.png&lt;/a&gt; &lt;a href=&quot;\nhttp://leetleech.org/images/40134873779973024403.png&quot; rel=&quot;nofollow&quot; target=&quot;_NEW&quot;&gt;\nhttp://leetleech.org/images/40134873779973024403.png&lt;/a&gt;\n\nGreets:\n\nINK,CRYS,IMAGINE,LKRG,FXG,3Li,FLAWL3SS,TA,iLLUSiON,ViSiON,DTRG SAFCuk009,LU,TheFalcon007,MYSTiC,PrisM,Noir,WBZ,LAP,Rx,Kingdom,SAFCuk009+Fabreezy,HDLiTE,TWiZTED,ExtraTorrentRG.ELEKTRI4KA,MAGNAT,CM8\nAnd to all the other p2p grps past and present.","torrent":{"xt":"urn:btih:8f1d7cc2f9a2b226448107229166b79139c44e0b","amp;dn":"Mongolian+Death+Worm+2010+DvDRip+XviD+Ac3+Feel-Free","amp;tr":["udp%3A%2F%2Ftracker.openbittorrent.com%3A80","udp%3A%2F%2Fopen.demonii.com%3A1337","udp%3A%2F%2Ftracker.coppersurfer.tk%3A6969","udp%3A%2F%2Fexodus.desync.com%3A6969"],"infoHash":"8f1d7cc2f9a2b226448107229166b79139c44e0b","infoHashBuffer":{"type":"Buffer","data":[143,29,124,194,249,162,178,38,68,129,7,34,145,102,183,145,57,196,78,11]},"announce":[],"urlList":[]}}